<?xml version="1.0" encoding="UTF-8"?><svg id="uuid-2f55702c-3803-4c91-a8ef-b54938275e16" xmlns="http://www.w3.org/2000/svg" viewBox="0 0 681.54 570.68"><g><line x1="271.24" y1="433.18" x2="277.24" y2="433.18" style="fill:none; stroke:#999; stroke-miterlimit:10; stroke-width:5px;"/><line x1="288.81" y1="433.18" x2="514.45" y2="433.18" style="fill:none; stroke:#999; stroke-dasharray:0 0 11.57 11.57; stroke-miterlimit:10; stroke-width:5px;"/><line x1="520.24" y1="433.18" x2="526.24" y2="433.18" style="fill:none; stroke:#999; stroke-miterlimit:10; stroke-width:5px;"/></g><line x1="14.83" y1="88.8" x2="526.83" y2="88.8" style="fill:none; stroke:#662d91; stroke-miterlimit:10; stroke-width:6px;"/><line x1="14.83" y1="175.21" x2="270.83" y2="175.21" style="fill:none; stroke:#662d91; stroke-miterlimit:10; stroke-width:6px;"/><polyline points="526.83 383.52 445.72 383.52 445.72 309.6 270.83 309.6" style="fill:none; stroke:#f7931e; stroke-miterlimit:10; stroke-width:6px;"/><line y1="234.36" x2="29.66" y2="234.36" style="fill:none; stroke:#3f0c0c; stroke-miterlimit:10; stroke-width:3px;"/><line y1="184.36" x2="29.66" y2="184.36" style="fill:none; stroke:#3f0c0c; stroke-miterlimit:10; stroke-width:3px;"/><line x1="257.39" y1="301.27" x2="287.05" y2="301.27" style="fill:none; stroke:#3f0c0c; stroke-miterlimit:10; stroke-width:3px;"/><line x1="257.39" y1="251.27" x2="287.05" y2="251.27" style="fill:none; stroke:#3f0c0c; stroke-miterlimit:10; stroke-width:3px;"/><line x1="431.88" y1="373.68" x2="461.54" y2="373.68" style="fill:none; stroke:#3f0c0c; stroke-miterlimit:10; stroke-width:3px;"/><line x1="431.88" y1="323.68" x2="461.54" y2="323.68" style="fill:none; stroke:#3f0c0c; stroke-miterlimit:10; stroke-width:3px;"/><line x1="511.88" y1="346.68" x2="541.54" y2="346.68" style="fill:none; stroke:#3f0c0c; stroke-miterlimit:10; stroke-width:3px;"/><line x1="511.88" y1="296.68" x2="541.54" y2="296.68" style="fill:none; stroke:#3f0c0c; stroke-miterlimit:10; stroke-width:3px;"/><line x1="651.88" y1="346.68" x2="681.54" y2="346.68" style="fill:none; stroke:#3f0c0c; stroke-miterlimit:10; stroke-width:3px;"/><line x1="651.88" y1="296.68" x2="681.54" y2="296.68" style="fill:none; stroke:#3f0c0c; stroke-miterlimit:10; stroke-width:3px;"/><g><line y1="74.72" x2="29.66" y2="74.72" style="fill:none; stroke:#3f0c0c; stroke-miterlimit:10; stroke-width:3px;"/><line y1="24.72" x2="29.66" y2="24.72" style="fill:none; stroke:#3f0c0c; stroke-miterlimit:10; stroke-width:3px;"/></g><line x1="3.09" y1="523.32" x2="32.75" y2="523.32" style="fill:none; stroke:#3f0c0c; stroke-miterlimit:10; stroke-width:3px;"/><line x1="3.09" y1="493.32" x2="32.75" y2="493.32" style="fill:none; stroke:#3f0c0c; stroke-miterlimit:10; stroke-width:3px;"/><line x1="416.88" y1="73.97" x2="416.88" y2="103.63" style="fill:none; stroke:#3f0c0c; stroke-miterlimit:10; stroke-width:3px;"/><line x1="446.88" y1="73.97" x2="446.88" y2="103.63" style="fill:none; stroke:#3f0c0c; stroke-miterlimit:10; stroke-width:3px;"/><g><line x1="112.83" y1="73.97" x2="112.83" y2="103.63" style="fill:none; stroke:#3f0c0c; stroke-miterlimit:10; stroke-width:3px;"/><line x1="142.83" y1="73.97" x2="142.83" y2="103.63" style="fill:none; stroke:#3f0c0c; stroke-miterlimit:10; stroke-width:3px;"/></g><g><line x1="114.9" y1="160.38" x2="114.9" y2="190.04" style="fill:none; stroke:#3f0c0c; stroke-miterlimit:10; stroke-width:3px;"/><line x1="144.9" y1="160.38" x2="144.9" y2="190.04" style="fill:none; stroke:#3f0c0c; stroke-miterlimit:10; stroke-width:3px;"/></g><polyline points="462.15 536 462.15 486.24 526.71 486.24" style="fill:none; stroke:#662d91; stroke-miterlimit:10; stroke-width:6px;"/><g><line x1="573.51" y1="417.4" x2="573.51" y2="447.06" style="fill:none; stroke:#3f0c0c; stroke-miterlimit:10; stroke-width:3px;"/><line x1="623.51" y1="417.4" x2="623.51" y2="447.06" style="fill:none; stroke:#3f0c0c; stroke-miterlimit:10; stroke-width:3px;"/></g><polyline points="526.87 88.8 666.24 88.8 666.24 433 526.71 433" style="fill:none; stroke:#662d91; stroke-miterlimit:10; stroke-width:6px;"/><g><line x1="556.94" y1="73.97" x2="556.94" y2="103.63" style="fill:none; stroke:#3f0c0c; stroke-miterlimit:10; stroke-width:3px;"/><line x1="606.94" y1="73.97" x2="606.94" y2="103.63" style="fill:none; stroke:#3f0c0c; stroke-miterlimit:10; stroke-width:3px;"/></g><line x1="278.74" y1="276.68" x2="262.78" y2="276.43" style="fill:none; stroke:#3f0c0c; stroke-miterlimit:10; stroke-width:3px;"/><polyline points="14.83 433 270.83 433 270.83 88.8" style="fill:none; stroke:#662d91; stroke-miterlimit:10; stroke-width:6px;"/><rect x="14.83" y="3" width="512" height="533" style="fill:none; stroke:#662d91; stroke-miterlimit:10; stroke-width:6px;"/><text transform="translate(177.93 489.06)" style="font-family:Menlo-Bold, Menlo; font-size:20px; font-weight:700;"><tspan x="0" y="0">IOT-lab</tspan></text><text transform="translate(322.93 197.06)" style="font-family:Menlo-Bold, Menlo; font-size:20px; font-weight:700;"><tspan x="0" y="0">instruction</tspan><tspan x="0" y="24">room</tspan></text><text transform="translate(256.93 35.06)" style="font-family:Menlo-Bold, Menlo; font-size:20px; font-weight:700;"><tspan x="0" y="0">immersive</tspan><tspan x="0" y="24">room</tspan></text><text transform="translate(68.93 297.06)" style="font-family:Menlo-Bold, Menlo; font-size:20px; font-weight:700;"><tspan x="0" y="0">prototyping </tspan><tspan x="0" y="24">lab</tspan></text><text transform="translate(32.93 138.06)" style="font-family:Menlo-Bold, Menlo; font-size:20px; font-weight:700;"><tspan x="0" y="0">3D-lab</tspan></text><line x1="201.24" y1="89.18" x2="201.24" y2="3.18" style="fill:none; stroke:#662d91; stroke-miterlimit:10; stroke-width:6px;"/><text transform="translate(573.12 261.1)" style="font-family:Menlo-Bold, Menlo; font-size:20px; font-weight:700;"><tspan x="0" y="0">gang</tspan></text><text transform="translate(631.77 476.22) rotate(90.29)" style="font-family:Menlo-Bold, Menlo; font-size:20px; font-weight:700;"><tspan x="0" y="0">parking</tspan></text><g><line x1="600.24" y1="472.18" x2="599.85" y2="549.15" style="fill:none; stroke:#333; stroke-miterlimit:10; stroke-width:3px;"/><polygon points="584.91 544.7 599.74 570.68 614.83 544.85 584.91 544.7" style="fill:#333;"/></g></svg>