<svg xmlns="http://www.w3.org/2000/svg" viewBox="0 0 515.9 125.9"><path d="M157.4 32.6c5.9 0 9.8 3.5 11.2 10.8.1.7.7 1.2 1.4 1.2.1 0 .2 0 .3-.1l3.6-.7c.7-.1 1.3-.8 1.2-1.5v-.1c-1.5-10.5-7.9-16.1-17.7-16.1-8.7 0-14 4.6-16.5 12-1 3.2-1.5 6.7-1.5 24.9s.6 21.8 1.5 24.9c2.5 7.3 7.8 11.9 16.5 11.9 9.8 0 16.2-5.5 17.7-15.9.2-.7-.2-1.4-.9-1.6h-.2l-3.6-.7c-.6-.3-1.3 0-1.6.6-.1.1-.1.3-.1.4-1.4 7.3-5.3 10.8-11.2 10.8-5 0-8.4-2.5-10.1-7.5-.7-2.2-1.3-5.3-1.3-22.9s.6-20.6 1.2-23c1.7-4.8 5.1-7.4 10.1-7.4zm57.1 33.3c6.6-2.8 10.2-8.9 10.2-18.5 0-13.7-6.8-20.1-20.1-20.1h-13.7c-.7 0-1.3.5-1.4 1.2v68.9c0 .7.5 1.3 1.2 1.4h4.4c.7 0 1.3-.5 1.4-1.2V68.4c-.1-.4.2-.8.6-.8h7.5c1.2 0 2.4 0 3.6-.1l10.4 30.1c.1.8.9 1.3 1.7 1.2h4.6c.8 0 1.1-.6.8-1.4l-11.2-31.5zm-10.3-4.8h-6.9c-.4.1-.8-.2-.8-.6v-26c-.1-.4.2-.8.6-.8h7.1c9.7 0 13.6 3.9 13.6 13.7s-3.9 13.7-13.6 13.7zm67.3-33.8h-28.8c-.7 0-1.4.5-1.4 1.2v68.8c0 .7.5 1.3 1.2 1.4h29c.7.1 1.3-.5 1.4-1.2v-3.9c0-.7-.5-1.3-1.2-1.4h-22.8c-.4.1-.8-.2-.8-.6v-25c-.1-.4.2-.8.6-.8h19.9c.7.1 1.3-.5 1.4-1.2v-3.9c0-.7-.5-1.3-1.2-1.4h-19.9c-.4.1-.8-.2-.8-.6V34.6c-.1-.4.2-.8.6-.8h22.8c.7.1 1.3-.5 1.4-1.2v-3.9c0-.7-.5-1.3-1.2-1.4h-.2zm33.5 1.4c-.1-.8-.8-1.4-1.7-1.4H299c-.8 0-1.2.4-1.5 1.4l-17.4 68.7c-.3 1 .3 1.4 1.1 1.4h4.2c1 0 1.4-.4 1.7-1.4l3.9-15.8h20.6l3.9 15.8c.3 1 .7 1.4 1.5 1.4h4.2c1 0 1.4-.4 1.1-1.4L305 28.7zm-12.6 46.5l8.6-34.9h.4l8.6 34.9h-17.6zm57.4-47.9h-14c-.7 0-1.3.5-1.4 1.2v68.9c0 .7.5 1.3 1.2 1.4h4.2c.7 0 1.3-.5 1.4-1.2V70.1c-.1-.4.2-.8.6-.8h8c12.7 0 20.1-6.2 20.1-21s-7.3-21-20.1-21zm-.6 35.6H342c-.4.1-.8-.2-.8-.6V34.5c-.1-.4.2-.8.6-.8h7.4c9.4 0 13.9 3.5 13.9 14.5s-4.5 14.7-13.9 14.7zm50.6-34.2c-.1-.8-.8-1.4-1.7-1.4h-4.3c-.8 0-1.2.4-1.5 1.4l-17.5 68.7c-.3 1 .3 1.4 1.1 1.4h4.1c1 0 1.4-.4 1.7-1.4l3.9-15.8h20.6l3.9 15.8c.3 1 .7 1.4 1.5 1.4h4.1c1 0 1.4-.4 1.1-1.4l-17-68.7zm-12.6 46.5l8.6-34.9h.4l8.6 34.9h-17.6zm58.4-42.6c6 0 9.8 3.5 11.2 10.8.1.7.7 1.2 1.4 1.2.1 0 .2 0 .3-.1l3.6-.7c.7-.1 1.2-.8 1.1-1.6v-.1c-1.5-10.5-7.9-16.1-17.7-16.1-8.7 0-14 4.6-16.5 12-1 3.2-1.5 6.7-1.5 24.9s.5 21.8 1.5 25c2.5 7.3 7.8 11.9 16.5 11.9 9.8 0 16.2-5.5 17.7-15.9.2-.7-.2-1.4-.9-1.6h-.2l-3.6-.7c-.6-.3-1.3 0-1.6.6-.1.1-.1.3-.1.4-1.4 7.3-5.3 10.8-11.2 10.8-5 0-8.5-2.5-10.1-7.5-.7-2.2-1.2-5.3-1.2-22.9s.6-20.6 1.2-23c1.7-4.8 5.1-7.4 10.1-7.4zm70.1 64.8l-19-42L513 28.5c.3-.3.2-.8-.1-1.1-.2-.1-.4-.2-.6-.2h-4.7c-.7-.1-1.5.3-1.8 1l-21.3 36.3V28.7c0-.7-.5-1.4-1.2-1.4h-4.1c-.7 0-1.3.5-1.4 1.2v68.9c0 .7.5 1.3 1.2 1.4h4.2c.7 0 1.3-.5 1.4-1.2V75.9l8.2-13.8 15.9 35.6c.2.7.8 1.1 1.5 1.1h4.9c.7 0 1-.6.6-1.4z" fill="#12334d"/><linearGradient id="a" gradientUnits="userSpaceOnUse" x1="-1502.159" y1="405.696" x2="-1501.949" y2="405.696" gradientTransform="rotate(30 3430.285 1787993.367) scale(594.82)"><stop offset="0" stop-color="#91cecf"/><stop offset=".48" stop-color="#62a4a2"/><stop offset="1" stop-color="#2a726e"/></linearGradient><path d="M.5 31.5c-.3.5-.5 1.1-.5 1.7v59.5c0 .6.2 1.2.5 1.7L55 63 .5 31.5" fill="url(#a)"/><linearGradient id="b" gradientUnits="userSpaceOnUse" x1="-1502.159" y1="405.696" x2="-1501.949" y2="405.696" gradientTransform="rotate(30 3430.285 1787993.367) scale(594.82)"><stop offset="0" stop-color="#6ca4bd"/><stop offset=".26" stop-color="#54869f"/><stop offset="1" stop-color="#13324a"/></linearGradient><path d="M55 63v63c.6 0 1.2-.1 1.7-.4l50.6-29.3c.9-.5 1.1-1.7.6-2.5-.2-.3-.4-.5-.6-.6L55 63" fill="url(#b)"/><linearGradient id="c" gradientUnits="userSpaceOnUse" x1="-1502.159" y1="405.697" x2="-1501.949" y2="405.697" gradientTransform="rotate(30 3430.285 1787993.367) scale(594.82)"><stop offset="0" stop-color="#81bac6"/><stop offset="1" stop-color="#1f4e5b"/></linearGradient><path d="M55 63L.5 94.4c.3.5.8 1 1.3 1.3l51.5 29.7c.5.3 1.1.4 1.7.4V63" fill="url(#c)"/><linearGradient id="d" gradientUnits="userSpaceOnUse" x1="-1502.159" y1="405.604" x2="-1501.949" y2="405.604" gradientTransform="rotate(30 3430.285 1787993.367) scale(594.82)"><stop offset="0" stop-color="#ffec1b"/><stop offset=".51" stop-color="#ffe11c"/><stop offset="1" stop-color="#ffd21e"/></linearGradient><path d="M55 0v63l52.2-30.2c.9-.5 1.2-1.6.7-2.5-.2-.3-.4-.5-.6-.6L76 11.5 56.9.5C56.3.2 55.7 0 55 0" fill="url(#d)"/><linearGradient id="e" gradientUnits="userSpaceOnUse" x1="-1502.159" y1="405.605" x2="-1501.949" y2="405.605" gradientTransform="rotate(30 3430.285 1787993.367) scale(594.82)"><stop offset="0" stop-color="#d3e094"/><stop offset=".32" stop-color="#bacd76"/><stop offset="1" stop-color="#7b9e2b"/></linearGradient><path d="M55 0c-.6 0-1.3.2-1.8.5L34.3 11.4 1.8 30.2c-.5.3-1 .8-1.3 1.3L55 63V0" fill="url(#e)"/></svg>